<?xml version="1.0" ?><svg viewBox="0 0 32 32" xmlns="http://www.w3.org/2000/svg"><defs><style>.cls-1{fill:#d8e1ef;}.cls-2{fill:#0593ff;}</style></defs><title/><g id="Check"><path class="cls-1" d="M25.71,10.29l-6-6A1,1,0,0,0,19,4H7A1,1,0,0,0,6,5V27a1,1,0,0,0,1,1H25a1,1,0,0,0,1-1V11A1,1,0,0,0,25.71,10.29Z"/><path class="cls-2" d="M26,11H20a1,1,0,0,1-1-1V4a1,1,0,0,1,.71.29l6,6A1,1,0,0,1,26,11Z"/><path class="cls-2" d="M15,22a.94.94,0,0,1-.55-.17l-3-2a1,1,0,0,1,1.1-1.66l2.26,1.5,4.42-5.31a1,1,0,1,1,1.54,1.28l-5,6A1,1,0,0,1,15,22Z"/></g></svg>