<?xml version="1.0"?><svg xmlns="http://www.w3.org/2000/svg" width="100" height="100"><rect x="0" y="0" width="100%" height="100%" fill="rgb(108, 92, 231)" /><polyline points="5.5,0,11.166666666667,0,16.666666666667,5.5,16.666666666667,11.166666666667,11.166666666667,16.666666666667,5.5,16.666666666667,0,11.166666666667,0,5.5,5.5,0" fill="#ddd" fill-opacity="0.037333333333333" stroke="#000" stroke-opacity="0.02" transform="translate(0, 0)" /><polyline points="5.5,0,11.166666666667,0,16.666666666667,5.5,16.666666666667,11.166666666667,11.166666666667,16.666666666667,5.5,16.666666666667,0,11.166666666667,0,5.5,5.5,0" fill="#222" fill-opacity="0.15" stroke="#000" stroke-opacity="0.02" transform="translate(16.666666666667, 0)" /><polyline points="5.5,0,11.166666666667,0,16.666666666667,5.5,16.666666666667,11.166666666667,11.166666666667,16.666666666667,5.5,16.666666666667,0,11.166666666667,0,5.5,5.5,0" fill="#222" fill-opacity="0.028666666666667" stroke="#000" stroke-opacity="0.02" transform="translate(33.333333333333, 0)" /><polyline points="5.5,0,11.166666666667,0,16.666666666667,5.5,16.666666666667,11.166666666667,11.166666666667,16.666666666667,5.5,16.666666666667,0,11.166666666667,0,5.5,5.5,0" fill="#222" fill-opacity="0.063333333333333" stroke="#000" stroke-opacity="0.02" transform="translate(50, 0)" /><polyline points="5.5,0,11.166666666667,0,16.666666666667,5.5,16.666666666667,11.166666666667,11.166666666667,16.666666666667,5.5,16.666666666667,0,11.166666666667,0,5.5,5.5,0" fill="#ddd" fill-opacity="0.02" stroke="#000" stroke-opacity="0.02" transform="translate(66.666666666667, 0)" /><polyline points="5.5,0,11.166666666667,0,16.666666666667,5.5,16.666666666667,11.166666666667,11.166666666667,16.666666666667,5.5,16.666666666667,0,11.166666666667,0,5.5,5.5,0" fill="#222" fill-opacity="0.063333333333333" stroke="#000" stroke-opacity="0.02" transform="translate(83.333333333333, 0)" /><polyline points="5.5,0,11.166666666667,0,16.666666666667,5.5,16.666666666667,11.166666666667,11.166666666667,16.666666666667,5.5,16.666666666667,0,11.166666666667,0,5.5,5.5,0" fill="#ddd" fill-opacity="0.10666666666667" stroke="#000" stroke-opacity="0.02" transform="translate(0, 16.666666666667)" /><polyline points="5.5,0,11.166666666667,0,16.666666666667,5.5,16.666666666667,11.166666666667,11.166666666667,16.666666666667,5.5,16.666666666667,0,11.166666666667,0,5.5,5.5,0" fill="#222" fill-opacity="0.080666666666667" stroke="#000" stroke-opacity="0.02" transform="translate(16.666666666667, 16.666666666667)" /><polyline points="5.5,0,11.166666666667,0,16.666666666667,5.5,16.666666666667,11.166666666667,11.166666666667,16.666666666667,5.5,16.666666666667,0,11.166666666667,0,5.5,5.5,0" fill="#222" fill-opacity="0.046" stroke="#000" stroke-opacity="0.02" transform="translate(33.333333333333, 16.666666666667)" /><polyline points="5.5,0,11.166666666667,0,16.666666666667,5.5,16.666666666667,11.166666666667,11.166666666667,16.666666666667,5.5,16.666666666667,0,11.166666666667,0,5.5,5.5,0" fill="#ddd" fill-opacity="0.037333333333333" stroke="#000" stroke-opacity="0.02" transform="translate(50, 16.666666666667)" /><polyline points="5.5,0,11.166666666667,0,16.666666666667,5.5,16.666666666667,11.166666666667,11.166666666667,16.666666666667,5.5,16.666666666667,0,11.166666666667,0,5.5,5.5,0" fill="#222" fill-opacity="0.080666666666667" stroke="#000" stroke-opacity="0.02" transform="translate(66.666666666667, 16.666666666667)" /><polyline points="5.5,0,11.166666666667,0,16.666666666667,5.5,16.666666666667,11.166666666667,11.166666666667,16.666666666667,5.5,16.666666666667,0,11.166666666667,0,5.5,5.5,0" fill="#ddd" fill-opacity="0.089333333333333" stroke="#000" stroke-opacity="0.02" transform="translate(83.333333333333, 16.666666666667)" /><polyline points="5.5,0,11.166666666667,0,16.666666666667,5.5,16.666666666667,11.166666666667,11.166666666667,16.666666666667,5.5,16.666666666667,0,11.166666666667,0,5.5,5.5,0" fill="#222" fill-opacity="0.028666666666667" stroke="#000" stroke-opacity="0.02" transform="translate(0, 33.333333333333)" /><polyline points="5.5,0,11.166666666667,0,16.666666666667,5.5,16.666666666667,11.166666666667,11.166666666667,16.666666666667,5.5,16.666666666667,0,11.166666666667,0,5.5,5.5,0" fill="#222" fill-opacity="0.028666666666667" stroke="#000" stroke-opacity="0.02" transform="translate(16.666666666667, 33.333333333333)" /><polyline points="5.5,0,11.166666666667,0,16.666666666667,5.5,16.666666666667,11.166666666667,11.166666666667,16.666666666667,5.5,16.666666666667,0,11.166666666667,0,5.5,5.5,0" fill="#222" fill-opacity="0.046" stroke="#000" stroke-opacity="0.02" transform="translate(33.333333333333, 33.333333333333)" /><polyline points="5.5,0,11.166666666667,0,16.666666666667,5.5,16.666666666667,11.166666666667,11.166666666667,16.666666666667,5.5,16.666666666667,0,11.166666666667,0,5.5,5.5,0" fill="#ddd" fill-opacity="0.037333333333333" stroke="#000" stroke-opacity="0.02" transform="translate(50, 33.333333333333)" /><polyline points="5.5,0,11.166666666667,0,16.666666666667,5.5,16.666666666667,11.166666666667,11.166666666667,16.666666666667,5.5,16.666666666667,0,11.166666666667,0,5.5,5.5,0" fill="#ddd" fill-opacity="0.054666666666667" stroke="#000" stroke-opacity="0.02" transform="translate(66.666666666667, 33.333333333333)" /><polyline points="5.5,0,11.166666666667,0,16.666666666667,5.5,16.666666666667,11.166666666667,11.166666666667,16.666666666667,5.5,16.666666666667,0,11.166666666667,0,5.5,5.5,0" fill="#222" fill-opacity="0.063333333333333" stroke="#000" stroke-opacity="0.02" transform="translate(83.333333333333, 33.333333333333)" /><polyline points="5.5,0,11.166666666667,0,16.666666666667,5.5,16.666666666667,11.166666666667,11.166666666667,16.666666666667,5.5,16.666666666667,0,11.166666666667,0,5.5,5.5,0" fill="#ddd" fill-opacity="0.124" stroke="#000" stroke-opacity="0.02" transform="translate(0, 50)" /><polyline points="5.5,0,11.166666666667,0,16.666666666667,5.5,16.666666666667,11.166666666667,11.166666666667,16.666666666667,5.5,16.666666666667,0,11.166666666667,0,5.5,5.5,0" fill="#222" fill-opacity="0.13266666666667" stroke="#000" stroke-opacity="0.02" transform="translate(16.666666666667, 50)" /><polyline points="5.5,0,11.166666666667,0,16.666666666667,5.5,16.666666666667,11.166666666667,11.166666666667,16.666666666667,5.5,16.666666666667,0,11.166666666667,0,5.5,5.5,0" fill="#ddd" fill-opacity="0.02" stroke="#000" stroke-opacity="0.02" transform="translate(33.333333333333, 50)" /><polyline points="5.5,0,11.166666666667,0,16.666666666667,5.5,16.666666666667,11.166666666667,11.166666666667,16.666666666667,5.5,16.666666666667,0,11.166666666667,0,5.5,5.5,0" fill="#ddd" fill-opacity="0.054666666666667" stroke="#000" stroke-opacity="0.02" transform="translate(50, 50)" /><polyline points="5.5,0,11.166666666667,0,16.666666666667,5.5,16.666666666667,11.166666666667,11.166666666667,16.666666666667,5.5,16.666666666667,0,11.166666666667,0,5.5,5.5,0" fill="#222" fill-opacity="0.046" stroke="#000" stroke-opacity="0.02" transform="translate(66.666666666667, 50)" /><polyline points="5.5,0,11.166666666667,0,16.666666666667,5.5,16.666666666667,11.166666666667,11.166666666667,16.666666666667,5.5,16.666666666667,0,11.166666666667,0,5.5,5.5,0" fill="#222" fill-opacity="0.063333333333333" stroke="#000" stroke-opacity="0.02" transform="translate(83.333333333333, 50)" /><polyline points="5.5,0,11.166666666667,0,16.666666666667,5.5,16.666666666667,11.166666666667,11.166666666667,16.666666666667,5.5,16.666666666667,0,11.166666666667,0,5.5,5.5,0" fill="#ddd" fill-opacity="0.02" stroke="#000" stroke-opacity="0.02" transform="translate(0, 66.666666666667)" /><polyline points="5.5,0,11.166666666667,0,16.666666666667,5.5,16.666666666667,11.166666666667,11.166666666667,16.666666666667,5.5,16.666666666667,0,11.166666666667,0,5.5,5.5,0" fill="#222" fill-opacity="0.098" stroke="#000" stroke-opacity="0.02" transform="translate(16.666666666667, 66.666666666667)" /><polyline points="5.5,0,11.166666666667,0,16.666666666667,5.5,16.666666666667,11.166666666667,11.166666666667,16.666666666667,5.5,16.666666666667,0,11.166666666667,0,5.5,5.5,0" fill="#ddd" fill-opacity="0.037333333333333" stroke="#000" stroke-opacity="0.02" transform="translate(33.333333333333, 66.666666666667)" /><polyline points="5.5,0,11.166666666667,0,16.666666666667,5.5,16.666666666667,11.166666666667,11.166666666667,16.666666666667,5.5,16.666666666667,0,11.166666666667,0,5.5,5.5,0" fill="#ddd" fill-opacity="0.037333333333333" stroke="#000" stroke-opacity="0.02" transform="translate(50, 66.666666666667)" /><polyline points="5.5,0,11.166666666667,0,16.666666666667,5.5,16.666666666667,11.166666666667,11.166666666667,16.666666666667,5.5,16.666666666667,0,11.166666666667,0,5.5,5.5,0" fill="#ddd" fill-opacity="0.10666666666667" stroke="#000" stroke-opacity="0.02" transform="translate(66.666666666667, 66.666666666667)" /><polyline points="5.5,0,11.166666666667,0,16.666666666667,5.5,16.666666666667,11.166666666667,11.166666666667,16.666666666667,5.5,16.666666666667,0,11.166666666667,0,5.5,5.5,0" fill="#222" fill-opacity="0.098" stroke="#000" stroke-opacity="0.02" transform="translate(83.333333333333, 66.666666666667)" /><polyline points="5.5,0,11.166666666667,0,16.666666666667,5.5,16.666666666667,11.166666666667,11.166666666667,16.666666666667,5.5,16.666666666667,0,11.166666666667,0,5.5,5.5,0" fill="#222" fill-opacity="0.063333333333333" stroke="#000" stroke-opacity="0.02" transform="translate(0, 83.333333333333)" /><polyline points="5.5,0,11.166666666667,0,16.666666666667,5.5,16.666666666667,11.166666666667,11.166666666667,16.666666666667,5.5,16.666666666667,0,11.166666666667,0,5.5,5.5,0" fill="#ddd" fill-opacity="0.14133333333333" stroke="#000" stroke-opacity="0.02" transform="translate(16.666666666667, 83.333333333333)" /><polyline points="5.5,0,11.166666666667,0,16.666666666667,5.5,16.666666666667,11.166666666667,11.166666666667,16.666666666667,5.5,16.666666666667,0,11.166666666667,0,5.5,5.5,0" fill="#ddd" fill-opacity="0.02" stroke="#000" stroke-opacity="0.02" transform="translate(33.333333333333, 83.333333333333)" /><polyline points="5.5,0,11.166666666667,0,16.666666666667,5.5,16.666666666667,11.166666666667,11.166666666667,16.666666666667,5.5,16.666666666667,0,11.166666666667,0,5.5,5.5,0" fill="#222" fill-opacity="0.098" stroke="#000" stroke-opacity="0.02" transform="translate(50, 83.333333333333)" /><polyline points="5.5,0,11.166666666667,0,16.666666666667,5.5,16.666666666667,11.166666666667,11.166666666667,16.666666666667,5.5,16.666666666667,0,11.166666666667,0,5.5,5.5,0" fill="#ddd" fill-opacity="0.054666666666667" stroke="#000" stroke-opacity="0.02" transform="translate(66.666666666667, 83.333333333333)" /><polyline points="5.5,0,11.166666666667,0,16.666666666667,5.5,16.666666666667,11.166666666667,11.166666666667,16.666666666667,5.5,16.666666666667,0,11.166666666667,0,5.5,5.5,0" fill="#ddd" fill-opacity="0.072" stroke="#000" stroke-opacity="0.02" transform="translate(83.333333333333, 83.333333333333)" /></svg>