<svg xmlns="http://www.w3.org/2000/svg" version="1.1" xmlns:xlink="http://www.w3.org/1999/xlink" xmlns:svgjs="http://svgjs.dev/svgjs" width="1440" height="560" preserveAspectRatio="none" viewBox="0 0 1440 560"><g mask="url(&quot;#SvgjsMask1028&quot;)" fill="none"><rect width="1440" height="560" x="0" y="0" fill="rgba(247, 246, 124, 1)"></rect><path d="M912.251,508.216C966.146,511.646,1013.208,470.794,1036.441,422.043C1056.913,379.085,1038.569,332.335,1016.045,290.416C991.731,245.165,963.492,194.548,912.251,190.912C856.471,186.954,802.689,222.797,779.367,273.621C758.765,318.518,788.378,364.821,812.724,407.803C837.619,451.752,861.843,505.008,912.251,508.216" fill="rgba(253, 255, 235, 1)" class="triangle-float3"></path><path d="M128.4,283.517C180.099,279.072,208.789,227.505,230.798,180.514C248.863,141.943,250.42,99.935,232.472,61.309C210.621,14.283,180.213,-37.781,128.4,-39.862C74.485,-42.027,35.609,5.517,8.768,52.325C-17.896,98.825,-34.467,153.596,-9.832,201.203C16.583,252.251,71.133,288.441,128.4,283.517" fill="rgba(253, 255, 235, 1)" class="triangle-float1"></path><path d="M828.6548050745145 526.245530984931L849.623778389013 427.5942677646908 691.1623969014036 445.4664394030631z" fill="rgba(253, 255, 235, 1)" class="triangle-float1"></path><path d="M1382.767,399.385C1414.853,399.314,1453.098,402.706,1469.189,374.947C1485.302,347.15,1463.634,315.463,1447.53,287.66C1431.486,259.961,1414.706,227.874,1382.767,225.747C1348.228,223.447,1318.533,247.996,1301.117,277.911C1283.578,308.036,1276.234,346.4,1295.68,375.331C1313.686,402.12,1350.489,399.456,1382.767,399.385" fill="rgba(253, 255, 235, 1)" class="triangle-float2"></path><path d="M1405.6814347084508 122.92441358568888L1279.9288150207826 147.36824667545577 1304.3726481105496 273.1208663631238 1430.1252677982177 248.67703327335693z" fill="rgba(253, 255, 235, 1)" class="triangle-float2"></path><path d="M1376.312,639.854C1432.082,640.566,1488.363,622.449,1518.578,575.567C1551.305,524.787,1556.557,459.125,1526.605,406.659C1496.423,353.791,1436.946,320.925,1376.312,326.364C1322.569,331.185,1292.592,382.797,1266.441,429.995C1241.435,475.126,1216.274,526.301,1240.206,572.011C1265.407,620.145,1321.984,639.16,1376.312,639.854" fill="rgba(253, 255, 235, 1)" class="triangle-float2"></path></g><defs><mask id="SvgjsMask1028"><rect width="1440" height="560" fill="#ffffff"></rect></mask></defs></svg>