<svg xmlns="http://www.w3.org/2000/svg" version="1.1" xmlns:xlink="http://www.w3.org/1999/xlink" xmlns:svgjs="http://svgjs.dev/svgjs" width="1440" height="560" preserveAspectRatio="none" viewBox="0 0 1440 560"><g mask="url(&quot;#SvgjsMask1039&quot;)" fill="none"><rect width="1440" height="560" x="0" y="0" fill="rgba(255, 211, 225, 1)"></rect><path d="M110.57155361486946 578.0370461659813L236.25875447604554 604.7526854269622 262.9743937370265 479.06548456578616 137.2871928758504 452.3498453048053z" fill="rgba(207, 125, 190, 1)" class="triangle-float3"></path><path d="M414.907,105.601C429.534,105.709,446.088,104.434,453.449,91.794C460.838,79.105,453.58,64.164,446.54,51.278C439.069,37.603,430.46,22.215,414.907,21.246C398.184,20.204,383.548,32.098,375.624,46.861C368.121,60.839,368.52,78.044,377.339,91.231C385.327,103.176,400.537,105.495,414.907,105.601" fill="rgba(207, 125, 190, 1)" class="triangle-float2"></path><path d="M414.024,507.986C457.117,505.408,483.491,465.945,505.097,428.571C526.735,391.143,549.861,347.483,528.564,309.861C507.082,271.912,457.631,267.783,414.024,267.685C370.181,267.587,322.435,272.552,298.593,309.346C273.059,348.75,278.301,400.133,301.892,440.73C325.363,481.12,367.393,510.776,414.024,507.986" fill="rgba(207, 125, 190, 1)" class="triangle-float2"></path><path d="M1064.332,483.946C1121.08,483.844,1178.891,458.175,1203.247,406.92C1225.358,360.388,1197.125,309.275,1167.293,267.273C1143.052,233.143,1106.064,214.639,1064.332,211.334C1014.236,207.367,957.808,207.455,928.638,248.375C895.645,294.659,896.183,358.166,924.554,407.419C952.971,456.752,1007.4,484.048,1064.332,483.946" fill="rgba(207, 125, 190, 1)" class="triangle-float2"></path><path d="M1171.4160660636373 579.5384383949684L1250.0769245663128 511.15959731335386 1181.6980834846981 432.49873881067856 1103.037224982023 500.87757989229306z" fill="rgba(207, 125, 190, 1)" class="triangle-float3"></path><path d="M1304.88,446.261C1364.891,451.644,1433.246,436.403,1461.231,383.045C1488.142,331.736,1452.634,274.22,1420.342,226.115C1392.819,185.115,1354.165,153.216,1304.88,150.134C1249.446,146.668,1188.058,161.211,1161.372,209.922C1135.334,257.449,1162.453,312.447,1190.58,358.768C1217.271,402.725,1253.66,441.666,1304.88,446.261" fill="rgba(207, 125, 190, 1)" class="triangle-float1"></path></g><defs><mask id="SvgjsMask1039"><rect width="1440" height="560" fill="#ffffff"></rect></mask></defs></svg>