<?xml version="1.0"?><svg xmlns="http://www.w3.org/2000/svg" width="216" height="216"><rect x="0" y="0" width="100%" height="100%" fill="rgb(162, 155, 254)" /><circle cx="18" cy="18" r="15" fill="none" stroke="#ddd" style="opacity:0.072;stroke-width:6px;" /><circle cx="18" cy="18" r="7.5" fill="#222" fill-opacity="0.046" /><circle cx="54" cy="18" r="15" fill="none" stroke="#222" style="opacity:0.063333333333333;stroke-width:6px;" /><circle cx="54" cy="18" r="7.5" fill="#222" fill-opacity="0.063333333333333" /><circle cx="90" cy="18" r="15" fill="none" stroke="#222" style="opacity:0.098;stroke-width:6px;" /><circle cx="90" cy="18" r="7.5" fill="#222" fill-opacity="0.028666666666667" /><circle cx="126" cy="18" r="15" fill="none" stroke="#ddd" style="opacity:0.124;stroke-width:6px;" /><circle cx="126" cy="18" r="7.5" fill="#222" fill-opacity="0.15" /><circle cx="162" cy="18" r="15" fill="none" stroke="#ddd" style="opacity:0.02;stroke-width:6px;" /><circle cx="162" cy="18" r="7.5" fill="#222" fill-opacity="0.13266666666667" /><circle cx="198" cy="18" r="15" fill="none" stroke="#222" style="opacity:0.11533333333333;stroke-width:6px;" /><circle cx="198" cy="18" r="7.5" fill="#ddd" fill-opacity="0.02" /><circle cx="18" cy="54" r="15" fill="none" stroke="#ddd" style="opacity:0.089333333333333;stroke-width:6px;" /><circle cx="18" cy="54" r="7.5" fill="#ddd" fill-opacity="0.124" /><circle cx="54" cy="54" r="15" fill="none" stroke="#ddd" style="opacity:0.037333333333333;stroke-width:6px;" /><circle cx="54" cy="54" r="7.5" fill="#ddd" fill-opacity="0.14133333333333" /><circle cx="90" cy="54" r="15" fill="none" stroke="#222" style="opacity:0.080666666666667;stroke-width:6px;" /><circle cx="90" cy="54" r="7.5" fill="#ddd" fill-opacity="0.037333333333333" /><circle cx="126" cy="54" r="15" fill="none" stroke="#222" style="opacity:0.028666666666667;stroke-width:6px;" /><circle cx="126" cy="54" r="7.5" fill="#ddd" fill-opacity="0.02" /><circle cx="162" cy="54" r="15" fill="none" stroke="#222" style="opacity:0.028666666666667;stroke-width:6px;" /><circle cx="162" cy="54" r="7.5" fill="#222" fill-opacity="0.063333333333333" /><circle cx="198" cy="54" r="15" fill="none" stroke="#222" style="opacity:0.080666666666667;stroke-width:6px;" /><circle cx="198" cy="54" r="7.5" fill="#ddd" fill-opacity="0.124" /><circle cx="18" cy="90" r="15" fill="none" stroke="#ddd" style="opacity:0.089333333333333;stroke-width:6px;" /><circle cx="18" cy="90" r="7.5" fill="#222" fill-opacity="0.028666666666667" /><circle cx="54" cy="90" r="15" fill="none" stroke="#ddd" style="opacity:0.089333333333333;stroke-width:6px;" /><circle cx="54" cy="90" r="7.5" fill="#ddd" fill-opacity="0.14133333333333" /><circle cx="90" cy="90" r="15" fill="none" stroke="#222" style="opacity:0.046;stroke-width:6px;" /><circle cx="90" cy="90" r="7.5" fill="#ddd" fill-opacity="0.10666666666667" /><circle cx="126" cy="90" r="15" fill="none" stroke="#ddd" style="opacity:0.072;stroke-width:6px;" /><circle cx="126" cy="90" r="7.5" fill="#222" fill-opacity="0.13266666666667" /><circle cx="162" cy="90" r="15" fill="none" stroke="#ddd" style="opacity:0.054666666666667;stroke-width:6px;" /><circle cx="162" cy="90" r="7.5" fill="#ddd" fill-opacity="0.089333333333333" /><circle cx="198" cy="90" r="15" fill="none" stroke="#ddd" style="opacity:0.14133333333333;stroke-width:6px;" /><circle cx="198" cy="90" r="7.5" fill="#222" fill-opacity="0.063333333333333" /><circle cx="18" cy="126" r="15" fill="none" stroke="#ddd" style="opacity:0.14133333333333;stroke-width:6px;" /><circle cx="18" cy="126" r="7.5" fill="#ddd" fill-opacity="0.054666666666667" /><circle cx="54" cy="126" r="15" fill="none" stroke="#222" style="opacity:0.028666666666667;stroke-width:6px;" /><circle cx="54" cy="126" r="7.5" fill="#ddd" fill-opacity="0.10666666666667" /><circle cx="90" cy="126" r="15" fill="none" stroke="#ddd" style="opacity:0.10666666666667;stroke-width:6px;" /><circle cx="90" cy="126" r="7.5" fill="#222" fill-opacity="0.028666666666667" /><circle cx="126" cy="126" r="15" fill="none" stroke="#ddd" style="opacity:0.054666666666667;stroke-width:6px;" /><circle cx="126" cy="126" r="7.5" fill="#ddd" fill-opacity="0.14133333333333" /><circle cx="162" cy="126" r="15" fill="none" stroke="#222" style="opacity:0.063333333333333;stroke-width:6px;" /><circle cx="162" cy="126" r="7.5" fill="#ddd" fill-opacity="0.14133333333333" /><circle cx="198" cy="126" r="15" fill="none" stroke="#ddd" style="opacity:0.089333333333333;stroke-width:6px;" /><circle cx="198" cy="126" r="7.5" fill="#ddd" fill-opacity="0.054666666666667" /><circle cx="18" cy="162" r="15" fill="none" stroke="#222" style="opacity:0.13266666666667;stroke-width:6px;" /><circle cx="18" cy="162" r="7.5" fill="#ddd" fill-opacity="0.072" /><circle cx="54" cy="162" r="15" fill="none" stroke="#ddd" style="opacity:0.10666666666667;stroke-width:6px;" /><circle cx="54" cy="162" r="7.5" fill="#222" fill-opacity="0.046" /><circle cx="90" cy="162" r="15" fill="none" stroke="#ddd" style="opacity:0.14133333333333;stroke-width:6px;" /><circle cx="90" cy="162" r="7.5" fill="#ddd" fill-opacity="0.089333333333333" /><circle cx="126" cy="162" r="15" fill="none" stroke="#222" style="opacity:0.028666666666667;stroke-width:6px;" /><circle cx="126" cy="162" r="7.5" fill="#ddd" fill-opacity="0.089333333333333" /><circle cx="162" cy="162" r="15" fill="none" stroke="#ddd" style="opacity:0.124;stroke-width:6px;" /><circle cx="162" cy="162" r="7.5" fill="#222" fill-opacity="0.080666666666667" /><circle cx="198" cy="162" r="15" fill="none" stroke="#222" style="opacity:0.063333333333333;stroke-width:6px;" /><circle cx="198" cy="162" r="7.5" fill="#222" fill-opacity="0.028666666666667" /><circle cx="18" cy="198" r="15" fill="none" stroke="#ddd" style="opacity:0.02;stroke-width:6px;" /><circle cx="18" cy="198" r="7.5" fill="#222" fill-opacity="0.028666666666667" /><circle cx="54" cy="198" r="15" fill="none" stroke="#ddd" style="opacity:0.037333333333333;stroke-width:6px;" /><circle cx="54" cy="198" r="7.5" fill="#222" fill-opacity="0.080666666666667" /><circle cx="90" cy="198" r="15" fill="none" stroke="#ddd" style="opacity:0.14133333333333;stroke-width:6px;" /><circle cx="90" cy="198" r="7.5" fill="#ddd" fill-opacity="0.037333333333333" /><circle cx="126" cy="198" r="15" fill="none" stroke="#ddd" style="opacity:0.124;stroke-width:6px;" /><circle cx="126" cy="198" r="7.5" fill="#ddd" fill-opacity="0.089333333333333" /><circle cx="162" cy="198" r="15" fill="none" stroke="#ddd" style="opacity:0.02;stroke-width:6px;" /><circle cx="162" cy="198" r="7.5" fill="#222" fill-opacity="0.11533333333333" /><circle cx="198" cy="198" r="15" fill="none" stroke="#222" style="opacity:0.13266666666667;stroke-width:6px;" /><circle cx="198" cy="198" r="7.5" fill="#ddd" fill-opacity="0.02" /></svg>