<svg xmlns="http://www.w3.org/2000/svg" version="1.1" xmlns:xlink="http://www.w3.org/1999/xlink" xmlns:svgjs="http://svgjs.dev/svgjs" width="1440" height="560" preserveAspectRatio="none" viewBox="0 0 1440 560"><g mask="url(&quot;#SvgjsMask1007&quot;)" fill="none"><rect width="1440" height="560" x="0" y="0" fill="rgba(178, 254, 255, 1)"></rect><path d="M848.51 619.41C982.61 583.22 1028.12 214.81 1226.2 211.97 1424.28 209.13 1500.62 376.24 1603.89 379.97" stroke="rgba(96, 221, 194, 1)" stroke-width="2"></path><path d="M923.61 601.14C1058.25 567.86 1110.47 204.98 1310.27 203.33 1510.06 201.68 1588.69 393.84 1696.92 399.33" stroke="rgba(96, 221, 194, 1)" stroke-width="2"></path><path d="M155.21 643.47C274.32 639.41 371.75 453.62 592.39 453.34 813.03 453.06 810.98 523.34 1029.57 523.34 1248.16 523.34 1356.06 453.56 1466.75 453.34" stroke="rgba(96, 221, 194, 1)" stroke-width="2"></path><path d="M176.34 619.21C331.01 575.95 370.02 153.72 608.46 143.82 846.9 133.92 824.51 213.82 1040.57 213.82 1256.63 213.82 1363.25 144.05 1472.69 143.82" stroke="rgba(96, 221, 194, 1)" stroke-width="2"></path><path d="M683.4 666.55C816.5 664.81 920.8 516.46 1192.4 510.32 1464 504.18 1562.46 291.2 1701.4 286.32" stroke="rgba(96, 221, 194, 1)" stroke-width="2"></path></g><defs><mask id="SvgjsMask1007"><rect width="1440" height="560" fill="#ffffff"></rect></mask></defs></svg>