<svg xmlns="http://www.w3.org/2000/svg" version="1.1" xmlns:xlink="http://www.w3.org/1999/xlink" xmlns:svgjs="http://svgjs.dev/svgjs" width="1440" height="560" preserveAspectRatio="none" viewBox="0 0 1440 560"><g mask="url(&quot;#SvgjsMask1033&quot;)" fill="none"><rect width="1440" height="560" x="0" y="0" fill="rgba(189, 247, 251, 1)"></rect><path d="M1352.995,414.584C1368.45,415.119,1385.504,411.046,1392.704,397.36C1399.609,384.235,1391.789,369.102,1383.334,356.917C1376.272,346.74,1365.379,340.423,1352.995,340.133C1340.034,339.829,1327.114,344.539,1320.09,355.436C1312.465,367.266,1310.939,382.464,1317.782,394.764C1324.8,407.379,1338.568,414.084,1352.995,414.584" fill="rgba(79, 191, 156, 1)" class="triangle-float2"></path><path d="M153.538,599.182C184.036,599.549,210.828,579.424,224.94,552.385C238.063,527.241,233.696,497.63,219.291,473.198C205.142,449.201,181.393,430.874,153.538,431.284C126.279,431.685,104.619,451.438,91.056,475.087C77.574,498.595,72.862,526.498,85.049,550.703C98.531,577.479,123.562,598.822,153.538,599.182" fill="rgba(79, 191, 156, 1)" class="triangle-float2"></path><path d="M-6.406,359.647C9.796,359.941,24.327,350.409,32.578,336.462C40.992,322.239,43.166,304.412,34.646,290.253C26.346,276.46,9.652,270.548,-6.406,271.68C-20.639,272.683,-31.393,283.053,-38.527,295.41C-45.66,307.766,-49.396,322.33,-43.015,335.091C-35.972,349.177,-22.152,359.361,-6.406,359.647" fill="rgba(79, 191, 156, 1)" class="triangle-float1"></path><path d="M428.85503628272915 340.17198007193434L589.8966618193119 383.322953582257 633.0476353296347 222.28132804567423 472.0060097930518 179.13035453535153z" fill="rgba(79, 191, 156, 1)" class="triangle-float2"></path><path d="M1056.101,729.45C1103.991,726.844,1136.459,687.602,1162.095,647.068C1190.448,602.238,1221.712,551.29,1199.137,503.29C1174.099,450.052,1114.775,417.391,1056.101,421.694C1002.872,425.597,970.586,474.899,945.306,521.904C921.788,565.633,904.661,616.005,928.044,659.806C952.57,705.748,1004.099,732.28,1056.101,729.45" fill="rgba(79, 191, 156, 1)" class="triangle-float2"></path><path d="M1287.1336092082306 281.46683613617523L1417.702397456161 190.04158635006695 1326.2771476700527 59.47279810213658 1195.7083594221224 150.89804788824486z" fill="rgba(79, 191, 156, 1)" class="triangle-float2"></path></g><defs><mask id="SvgjsMask1033"><rect width="1440" height="560" fill="#ffffff"></rect></mask></defs></svg>