<svg xmlns="http://www.w3.org/2000/svg" version="1.1" xmlns:xlink="http://www.w3.org/1999/xlink" xmlns:svgjs="http://svgjs.dev/svgjs" width="400" height="300" preserveAspectRatio="none" viewBox="0 0 400 300"><g mask="url(&quot;#SvgjsMask1012&quot;)" fill="none"><rect width="400" height="300" x="0" y="0" fill="rgba(143, 247, 199, 1)"></rect><path d="M 0,157 C 16,142.8 48,81.2 80,86 C 112,90.8 128,172.6 160,181 C 192,189.4 208,123.8 240,128 C 272,132.2 288,202.6 320,202 C 352,201.4 384,140.4 400,125L400 300L0 300z" fill="rgba(141, 223, 137, 1)"></path><path d="M 0,36 C 26.8,72.2 80.4,199.6 134,217 C 187.6,234.4 214.8,124 268,123 C 321.2,122 373.6,194.2 400,212L400 300L0 300z" fill="rgba(140, 247, 153, 1)"></path></g><defs><mask id="SvgjsMask1012"><rect width="400" height="300" fill="#ffffff"></rect></mask></defs></svg>