<svg xmlns="http://www.w3.org/2000/svg" version="1.1" xmlns:xlink="http://www.w3.org/1999/xlink" xmlns:svgjs="http://svgjs.dev/svgjs" width="400" height="300" preserveAspectRatio="none" viewBox="0 0 400 300"><g mask="url(&quot;#SvgjsMask1024&quot;)" fill="none"><rect width="400" height="300" x="0" y="0" fill="rgba(156, 216, 223, 1)"></rect><path d="M0,179.81C32.857,175.987,54.06,145.238,82.69,128.668C113.166,111.03,153.46,108.15,173.657,79.306C194.833,49.064,198.891,8.671,192.129,-27.624C185.497,-63.221,165.944,-97.051,136.799,-118.537C109.925,-138.348,73.513,-132.197,40.856,-139.143C11.239,-145.442,-16.76,-164.396,-46.237,-157.468C-76.193,-150.427,-99.41,-126.72,-117.598,-101.899C-134.85,-78.355,-142.749,-50.004,-146.219,-21.023C-149.625,7.422,-145.395,35.223,-137.308,62.706C-128.082,94.061,-120.922,128.254,-96.054,149.463C-69.978,171.702,-34.042,183.771,0,179.81" fill="#63c1cd"></path><path d="M400 484.827C434.445 485.246 463.871 463.102 492.895 444.548 521.985 425.952 551.852 407.18399999999997 568.645 377.017 586.182 345.513 594.1 308.516 588.443 272.906 582.828 237.55599999999998 561.967 206.98000000000002 537.487 180.86700000000002 513.692 155.484 485.654 129.433 451.004 126.29599999999999 417.615 123.273 391.801 153.327 360.30899999999997 164.826 331.522 175.338 292.869 166.68 274.08799999999997 190.897 255.218 215.228 272.047 250.584 269.975 281.305 268.101 309.084 256.009 335.721 262.495 362.797 269.778 393.198 285.163 421.558 308.544 442.308 334.209 465.08500000000004 365.689 484.40999999999997 400 484.827" fill="#d5eff2"></path></g><defs><mask id="SvgjsMask1024"><rect width="400" height="300" fill="#ffffff"></rect></mask></defs></svg>