<?xml version="1.0"?><svg xmlns="http://www.w3.org/2000/svg" width="220" height="220"><rect x="0" y="0" width="100%" height="100%" fill="rgb(162, 155, 254)" /><polyline points="12.1,0,24.566666666667,0,36.666666666667,12.1,36.666666666667,24.566666666667,24.566666666667,36.666666666667,12.1,36.666666666667,0,24.566666666667,0,12.1,12.1,0" fill="#ddd" fill-opacity="0.089333333333333" stroke="#000" stroke-opacity="0.02" transform="translate(0, 0)" /><polyline points="12.1,0,24.566666666667,0,36.666666666667,12.1,36.666666666667,24.566666666667,24.566666666667,36.666666666667,12.1,36.666666666667,0,24.566666666667,0,12.1,12.1,0" fill="#222" fill-opacity="0.098" stroke="#000" stroke-opacity="0.02" transform="translate(36.666666666667, 0)" /><polyline points="12.1,0,24.566666666667,0,36.666666666667,12.1,36.666666666667,24.566666666667,24.566666666667,36.666666666667,12.1,36.666666666667,0,24.566666666667,0,12.1,12.1,0" fill="#222" fill-opacity="0.13266666666667" stroke="#000" stroke-opacity="0.02" transform="translate(73.333333333333, 0)" /><polyline points="12.1,0,24.566666666667,0,36.666666666667,12.1,36.666666666667,24.566666666667,24.566666666667,36.666666666667,12.1,36.666666666667,0,24.566666666667,0,12.1,12.1,0" fill="#222" fill-opacity="0.15" stroke="#000" stroke-opacity="0.02" transform="translate(110, 0)" /><polyline points="12.1,0,24.566666666667,0,36.666666666667,12.1,36.666666666667,24.566666666667,24.566666666667,36.666666666667,12.1,36.666666666667,0,24.566666666667,0,12.1,12.1,0" fill="#222" fill-opacity="0.046" stroke="#000" stroke-opacity="0.02" transform="translate(146.66666666667, 0)" /><polyline points="12.1,0,24.566666666667,0,36.666666666667,12.1,36.666666666667,24.566666666667,24.566666666667,36.666666666667,12.1,36.666666666667,0,24.566666666667,0,12.1,12.1,0" fill="#222" fill-opacity="0.098" stroke="#000" stroke-opacity="0.02" transform="translate(183.33333333333, 0)" /><polyline points="12.1,0,24.566666666667,0,36.666666666667,12.1,36.666666666667,24.566666666667,24.566666666667,36.666666666667,12.1,36.666666666667,0,24.566666666667,0,12.1,12.1,0" fill="#222" fill-opacity="0.028666666666667" stroke="#000" stroke-opacity="0.02" transform="translate(0, 36.666666666667)" /><polyline points="12.1,0,24.566666666667,0,36.666666666667,12.1,36.666666666667,24.566666666667,24.566666666667,36.666666666667,12.1,36.666666666667,0,24.566666666667,0,12.1,12.1,0" fill="#222" fill-opacity="0.080666666666667" stroke="#000" stroke-opacity="0.02" transform="translate(36.666666666667, 36.666666666667)" /><polyline points="12.1,0,24.566666666667,0,36.666666666667,12.1,36.666666666667,24.566666666667,24.566666666667,36.666666666667,12.1,36.666666666667,0,24.566666666667,0,12.1,12.1,0" fill="#ddd" fill-opacity="0.10666666666667" stroke="#000" stroke-opacity="0.02" transform="translate(73.333333333333, 36.666666666667)" /><polyline points="12.1,0,24.566666666667,0,36.666666666667,12.1,36.666666666667,24.566666666667,24.566666666667,36.666666666667,12.1,36.666666666667,0,24.566666666667,0,12.1,12.1,0" fill="#222" fill-opacity="0.028666666666667" stroke="#000" stroke-opacity="0.02" transform="translate(110, 36.666666666667)" /><polyline points="12.1,0,24.566666666667,0,36.666666666667,12.1,36.666666666667,24.566666666667,24.566666666667,36.666666666667,12.1,36.666666666667,0,24.566666666667,0,12.1,12.1,0" fill="#222" fill-opacity="0.028666666666667" stroke="#000" stroke-opacity="0.02" transform="translate(146.66666666667, 36.666666666667)" /><polyline points="12.1,0,24.566666666667,0,36.666666666667,12.1,36.666666666667,24.566666666667,24.566666666667,36.666666666667,12.1,36.666666666667,0,24.566666666667,0,12.1,12.1,0" fill="#ddd" fill-opacity="0.037333333333333" stroke="#000" stroke-opacity="0.02" transform="translate(183.33333333333, 36.666666666667)" /><polyline points="12.1,0,24.566666666667,0,36.666666666667,12.1,36.666666666667,24.566666666667,24.566666666667,36.666666666667,12.1,36.666666666667,0,24.566666666667,0,12.1,12.1,0" fill="#222" fill-opacity="0.11533333333333" stroke="#000" stroke-opacity="0.02" transform="translate(0, 73.333333333333)" /><polyline points="12.1,0,24.566666666667,0,36.666666666667,12.1,36.666666666667,24.566666666667,24.566666666667,36.666666666667,12.1,36.666666666667,0,24.566666666667,0,12.1,12.1,0" fill="#222" fill-opacity="0.063333333333333" stroke="#000" stroke-opacity="0.02" transform="translate(36.666666666667, 73.333333333333)" /><polyline points="12.1,0,24.566666666667,0,36.666666666667,12.1,36.666666666667,24.566666666667,24.566666666667,36.666666666667,12.1,36.666666666667,0,24.566666666667,0,12.1,12.1,0" fill="#222" fill-opacity="0.046" stroke="#000" stroke-opacity="0.02" transform="translate(73.333333333333, 73.333333333333)" /><polyline points="12.1,0,24.566666666667,0,36.666666666667,12.1,36.666666666667,24.566666666667,24.566666666667,36.666666666667,12.1,36.666666666667,0,24.566666666667,0,12.1,12.1,0" fill="#ddd" fill-opacity="0.089333333333333" stroke="#000" stroke-opacity="0.02" transform="translate(110, 73.333333333333)" /><polyline points="12.1,0,24.566666666667,0,36.666666666667,12.1,36.666666666667,24.566666666667,24.566666666667,36.666666666667,12.1,36.666666666667,0,24.566666666667,0,12.1,12.1,0" fill="#222" fill-opacity="0.098" stroke="#000" stroke-opacity="0.02" transform="translate(146.66666666667, 73.333333333333)" /><polyline points="12.1,0,24.566666666667,0,36.666666666667,12.1,36.666666666667,24.566666666667,24.566666666667,36.666666666667,12.1,36.666666666667,0,24.566666666667,0,12.1,12.1,0" fill="#ddd" fill-opacity="0.124" stroke="#000" stroke-opacity="0.02" transform="translate(183.33333333333, 73.333333333333)" /><polyline points="12.1,0,24.566666666667,0,36.666666666667,12.1,36.666666666667,24.566666666667,24.566666666667,36.666666666667,12.1,36.666666666667,0,24.566666666667,0,12.1,12.1,0" fill="#222" fill-opacity="0.13266666666667" stroke="#000" stroke-opacity="0.02" transform="translate(0, 110)" /><polyline points="12.1,0,24.566666666667,0,36.666666666667,12.1,36.666666666667,24.566666666667,24.566666666667,36.666666666667,12.1,36.666666666667,0,24.566666666667,0,12.1,12.1,0" fill="#ddd" fill-opacity="0.02" stroke="#000" stroke-opacity="0.02" transform="translate(36.666666666667, 110)" /><polyline points="12.1,0,24.566666666667,0,36.666666666667,12.1,36.666666666667,24.566666666667,24.566666666667,36.666666666667,12.1,36.666666666667,0,24.566666666667,0,12.1,12.1,0" fill="#ddd" fill-opacity="0.02" stroke="#000" stroke-opacity="0.02" transform="translate(73.333333333333, 110)" /><polyline points="12.1,0,24.566666666667,0,36.666666666667,12.1,36.666666666667,24.566666666667,24.566666666667,36.666666666667,12.1,36.666666666667,0,24.566666666667,0,12.1,12.1,0" fill="#ddd" fill-opacity="0.089333333333333" stroke="#000" stroke-opacity="0.02" transform="translate(110, 110)" /><polyline points="12.1,0,24.566666666667,0,36.666666666667,12.1,36.666666666667,24.566666666667,24.566666666667,36.666666666667,12.1,36.666666666667,0,24.566666666667,0,12.1,12.1,0" fill="#222" fill-opacity="0.13266666666667" stroke="#000" stroke-opacity="0.02" transform="translate(146.66666666667, 110)" /><polyline points="12.1,0,24.566666666667,0,36.666666666667,12.1,36.666666666667,24.566666666667,24.566666666667,36.666666666667,12.1,36.666666666667,0,24.566666666667,0,12.1,12.1,0" fill="#222" fill-opacity="0.028666666666667" stroke="#000" stroke-opacity="0.02" transform="translate(183.33333333333, 110)" /><polyline points="12.1,0,24.566666666667,0,36.666666666667,12.1,36.666666666667,24.566666666667,24.566666666667,36.666666666667,12.1,36.666666666667,0,24.566666666667,0,12.1,12.1,0" fill="#222" fill-opacity="0.11533333333333" stroke="#000" stroke-opacity="0.02" transform="translate(0, 146.66666666667)" /><polyline points="12.1,0,24.566666666667,0,36.666666666667,12.1,36.666666666667,24.566666666667,24.566666666667,36.666666666667,12.1,36.666666666667,0,24.566666666667,0,12.1,12.1,0" fill="#ddd" fill-opacity="0.124" stroke="#000" stroke-opacity="0.02" transform="translate(36.666666666667, 146.66666666667)" /><polyline points="12.1,0,24.566666666667,0,36.666666666667,12.1,36.666666666667,24.566666666667,24.566666666667,36.666666666667,12.1,36.666666666667,0,24.566666666667,0,12.1,12.1,0" fill="#ddd" fill-opacity="0.124" stroke="#000" stroke-opacity="0.02" transform="translate(73.333333333333, 146.66666666667)" /><polyline points="12.1,0,24.566666666667,0,36.666666666667,12.1,36.666666666667,24.566666666667,24.566666666667,36.666666666667,12.1,36.666666666667,0,24.566666666667,0,12.1,12.1,0" fill="#ddd" fill-opacity="0.02" stroke="#000" stroke-opacity="0.02" transform="translate(110, 146.66666666667)" /><polyline points="12.1,0,24.566666666667,0,36.666666666667,12.1,36.666666666667,24.566666666667,24.566666666667,36.666666666667,12.1,36.666666666667,0,24.566666666667,0,12.1,12.1,0" fill="#222" fill-opacity="0.080666666666667" stroke="#000" stroke-opacity="0.02" transform="translate(146.66666666667, 146.66666666667)" /><polyline points="12.1,0,24.566666666667,0,36.666666666667,12.1,36.666666666667,24.566666666667,24.566666666667,36.666666666667,12.1,36.666666666667,0,24.566666666667,0,12.1,12.1,0" fill="#222" fill-opacity="0.028666666666667" stroke="#000" stroke-opacity="0.02" transform="translate(183.33333333333, 146.66666666667)" /><polyline points="12.1,0,24.566666666667,0,36.666666666667,12.1,36.666666666667,24.566666666667,24.566666666667,36.666666666667,12.1,36.666666666667,0,24.566666666667,0,12.1,12.1,0" fill="#222" fill-opacity="0.080666666666667" stroke="#000" stroke-opacity="0.02" transform="translate(0, 183.33333333333)" /><polyline points="12.1,0,24.566666666667,0,36.666666666667,12.1,36.666666666667,24.566666666667,24.566666666667,36.666666666667,12.1,36.666666666667,0,24.566666666667,0,12.1,12.1,0" fill="#222" fill-opacity="0.063333333333333" stroke="#000" stroke-opacity="0.02" transform="translate(36.666666666667, 183.33333333333)" /><polyline points="12.1,0,24.566666666667,0,36.666666666667,12.1,36.666666666667,24.566666666667,24.566666666667,36.666666666667,12.1,36.666666666667,0,24.566666666667,0,12.1,12.1,0" fill="#ddd" fill-opacity="0.10666666666667" stroke="#000" stroke-opacity="0.02" transform="translate(73.333333333333, 183.33333333333)" /><polyline points="12.1,0,24.566666666667,0,36.666666666667,12.1,36.666666666667,24.566666666667,24.566666666667,36.666666666667,12.1,36.666666666667,0,24.566666666667,0,12.1,12.1,0" fill="#222" fill-opacity="0.063333333333333" stroke="#000" stroke-opacity="0.02" transform="translate(110, 183.33333333333)" /><polyline points="12.1,0,24.566666666667,0,36.666666666667,12.1,36.666666666667,24.566666666667,24.566666666667,36.666666666667,12.1,36.666666666667,0,24.566666666667,0,12.1,12.1,0" fill="#ddd" fill-opacity="0.124" stroke="#000" stroke-opacity="0.02" transform="translate(146.66666666667, 183.33333333333)" /><polyline points="12.1,0,24.566666666667,0,36.666666666667,12.1,36.666666666667,24.566666666667,24.566666666667,36.666666666667,12.1,36.666666666667,0,24.566666666667,0,12.1,12.1,0" fill="#ddd" fill-opacity="0.02" stroke="#000" stroke-opacity="0.02" transform="translate(183.33333333333, 183.33333333333)" /></svg>