<svg xmlns="http://www.w3.org/2000/svg" version="1.1" xmlns:xlink="http://www.w3.org/1999/xlink" xmlns:svgjs="http://svgjs.dev/svgjs" width="400" height="300" preserveAspectRatio="none" viewBox="0 0 400 300"><g mask="url(&quot;#SvgjsMask2199&quot;)" fill="none"><rect width="400" height="300" x="0" y="0" fill="rgba(253, 179, 237, 1)"></rect><use xlink:href="#SvgjsPath2200" x="30" y="30" stroke="rgba(209, 90, 195, 1)"></use><use xlink:href="#SvgjsPath2200" x="30" y="90" stroke="rgba(209, 90, 195, 1)"></use><use xlink:href="#SvgjsPath2201" x="30" y="150" stroke="rgba(209, 90, 195, 1)"></use><use xlink:href="#SvgjsPath2200" x="30" y="210" stroke="rgba(209, 90, 195, 1)"></use><use xlink:href="#SvgjsPath2201" x="30" y="270" stroke="rgba(209, 90, 195, 1)"></use><use xlink:href="#SvgjsPath2202" x="90" y="30" stroke="rgba(209, 90, 195, 1)"></use><use xlink:href="#SvgjsPath2201" x="90" y="90" stroke="rgba(209, 90, 195, 1)"></use><use xlink:href="#SvgjsPath2201" x="90" y="150" stroke="rgba(209, 90, 195, 1)"></use><use xlink:href="#SvgjsPath2201" x="90" y="210" stroke="rgba(209, 90, 195, 1)"></use><use xlink:href="#SvgjsPath2203" x="90" y="270" stroke="rgba(209, 90, 195, 1)"></use><use xlink:href="#SvgjsPath2200" x="150" y="30" stroke="rgba(209, 90, 195, 1)"></use><use xlink:href="#SvgjsPath2201" x="150" y="90" stroke="rgba(209, 90, 195, 1)"></use><use xlink:href="#SvgjsPath2204" x="150" y="150" stroke="rgba(209, 90, 195, 1)"></use><use xlink:href="#SvgjsPath2204" x="150" y="210" stroke="rgba(209, 90, 195, 1)"></use><use xlink:href="#SvgjsPath2202" x="150" y="270" stroke="rgba(209, 90, 195, 1)"></use><use xlink:href="#SvgjsPath2205" x="210" y="30" stroke="rgba(209, 90, 195, 1)" stroke-width="3"></use><use xlink:href="#SvgjsPath2201" x="210" y="90" stroke="rgba(209, 90, 195, 1)"></use><use xlink:href="#SvgjsPath2201" x="210" y="150" stroke="rgba(209, 90, 195, 1)"></use><use xlink:href="#SvgjsPath2202" x="210" y="210" stroke="rgba(209, 90, 195, 1)"></use><use xlink:href="#SvgjsPath2201" x="210" y="270" stroke="rgba(209, 90, 195, 1)"></use><use xlink:href="#SvgjsPath2201" x="270" y="30" stroke="rgba(209, 90, 195, 1)"></use><use xlink:href="#SvgjsPath2201" x="270" y="90" stroke="rgba(209, 90, 195, 1)"></use><use xlink:href="#SvgjsPath2200" x="270" y="150" stroke="rgba(209, 90, 195, 1)"></use><use xlink:href="#SvgjsPath2201" x="270" y="210" stroke="rgba(209, 90, 195, 1)"></use><use xlink:href="#SvgjsPath2203" x="270" y="270" stroke="rgba(209, 90, 195, 1)"></use><use xlink:href="#SvgjsPath2202" x="330" y="30" stroke="rgba(209, 90, 195, 1)"></use><use xlink:href="#SvgjsPath2200" x="330" y="90" stroke="rgba(209, 90, 195, 1)"></use><use xlink:href="#SvgjsPath2203" x="330" y="150" stroke="rgba(209, 90, 195, 1)"></use><use xlink:href="#SvgjsPath2203" x="330" y="210" stroke="rgba(209, 90, 195, 1)"></use><use xlink:href="#SvgjsPath2201" x="330" y="270" stroke="rgba(209, 90, 195, 1)"></use><use xlink:href="#SvgjsPath2203" x="390" y="30" stroke="rgba(209, 90, 195, 1)"></use><use xlink:href="#SvgjsPath2203" x="390" y="90" stroke="rgba(209, 90, 195, 1)"></use><use xlink:href="#SvgjsPath2203" x="390" y="150" stroke="rgba(209, 90, 195, 1)"></use><use xlink:href="#SvgjsPath2203" x="390" y="210" stroke="rgba(209, 90, 195, 1)"></use><use xlink:href="#SvgjsPath2202" x="390" y="270" stroke="rgba(209, 90, 195, 1)"></use></g><defs><mask id="SvgjsMask2199"><rect width="400" height="300" fill="#ffffff"></rect></mask><path d="M-1 0 a1 1 0 1 0 2 0 a1 1 0 1 0 -2 0z" id="SvgjsPath2200"></path><path d="M-3 0 a3 3 0 1 0 6 0 a3 3 0 1 0 -6 0z" id="SvgjsPath2202"></path><path d="M-5 0 a5 5 0 1 0 10 0 a5 5 0 1 0 -10 0z" id="SvgjsPath2201"></path><path d="M2 -2 L-2 2z" id="SvgjsPath2204"></path><path d="M6 -6 L-6 6z" id="SvgjsPath2203"></path><path d="M30 -30 L-30 30z" id="SvgjsPath2205"></path></defs></svg>